fd_10_states
version=1
nRows=43
nColumns=17
inDegrees=yes

# SIMM Motion File Header:
name fd_10_states
datacolumns 17
datarows 43
otherdata 1
range 0.408266 0.468190
endheader
time	/jointset/r_shoulder/r_shoulder_elev/value	/jointset/r_shoulder/r_shoulder_elev/speed	/jointset/r_elbow/r_elbow_flex/value	/jointset/r_elbow/r_elbow_flex/speed	/forceset/TRIlong/activation	/forceset/TRIlong/fiber_length	/forceset/TRIlat/activation	/forceset/TRIlat/fiber_length	/forceset/TRImed/activation	/forceset/TRImed/fiber_length	/forceset/BIClong/activation	/forceset/BIClong/fiber_length	/forceset/BICshort/activation	/forceset/BICshort/fiber_length	/forceset/BRA/activation	/forceset/BRA/fiber_length
      0.408266	      0.092972	     -0.060682	     89.502724	    180.810721	      0.024374	      0.169470	      0.202637	      0.102762	      0.198913	      0.097830	      0.693684	      0.096236	      0.066687	      0.098036	      0.028185	      0.068915
      0.409730	      0.092882	     -0.063117	     89.766514	    179.764289	      0.024289	      0.169555	      0.203571	      0.102849	      0.199773	      0.097918	      0.694908	      0.096004	      0.066009	      0.097817	      0.028064	      0.068811
      0.410252	      0.092848	     -0.066207	     89.860384	    179.394651	      0.024259	      0.169587	      0.203963	      0.102881	      0.200152	      0.097949	      0.695359	      0.095921	      0.065754	      0.097739	      0.028019	      0.068774
      0.410775	      0.092812	     -0.069871	     89.954062	    179.027796	      0.024229	      0.169619	      0.204822	      0.102912	      0.201053	      0.097980	      0.696004	      0.095839	      0.065413	      0.097661	      0.027962	      0.068737
      0.411668	      0.092747	     -0.075820	     90.113651	    178.399433	      0.024179	      0.169672	      0.206170	      0.102964	      0.202465	      0.098032	      0.697060	      0.095698	      0.064838	      0.097528	      0.027867	      0.068674
      0.414320	      0.092533	     -0.082292	     90.584289	    176.482660	      0.024033	      0.169830	      0.209386	      0.103116	      0.205831	      0.098185	      0.699853	      0.095283	      0.063178	      0.097139	      0.027589	      0.068487
      0.416505	      0.092356	     -0.079072	     90.968059	    174.867475	      0.023916	      0.169956	      0.211341	      0.103242	      0.207872	      0.098310	      0.701816	      0.094944	      0.061864	      0.096821	      0.027368	      0.068335
      0.417825	      0.092252	     -0.079481	     91.198178	    173.889184	      0.023848	      0.170037	      0.212290	      0.103318	      0.208861	      0.098386	      0.702873	      0.094740	      0.061093	      0.096631	      0.027238	      0.068244
      0.419144	      0.092146	     -0.081814	     91.427013	    172.923818	      0.023780	      0.170111	      0.213097	      0.103394	      0.209701	      0.098462	      0.703843	      0.094538	      0.060338	      0.096442	      0.027110	      0.068153
      0.420097	      0.092065	     -0.086986	     91.591428	    172.235412	      0.023732	      0.170167	      0.213687	      0.103449	      0.210303	      0.098517	      0.704533	      0.094392	      0.059803	      0.096306	      0.027019	      0.068087
      0.420551	      0.092025	     -0.090306	     91.669530	    171.910497	      0.023710	      0.170193	      0.214462	      0.103475	      0.211030	      0.098543	      0.705089	      0.094323	      0.059551	      0.096241	      0.026976	      0.068056
      0.421005	      0.091983	     -0.093756	     91.747484	    171.585716	      0.023687	      0.170219	      0.215256	      0.103501	      0.211772	      0.098568	      0.705658	      0.094254	      0.059301	      0.096177	      0.026933	      0.068025
      0.423274	      0.091756	     -0.104346	     92.135021	    169.930546	      0.023577	      0.170349	      0.218619	      0.103626	      0.214913	      0.098694	      0.708267	      0.093911	      0.058077	      0.095856	      0.026724	      0.067870
      0.425543	      0.091519	     -0.102933	     92.518735	    168.221682	      0.023470	      0.170476	      0.221162	      0.103751	      0.217284	      0.098819	      0.710517	      0.093570	      0.056897	      0.095538	      0.026521	      0.067717
      0.427405	      0.091331	     -0.100344	     92.830565	    166.806281	      0.023385	      0.170583	      0.222781	      0.103853	      0.218792	      0.098922	      0.712132	      0.093292	      0.055960	      0.095279	      0.026359	      0.067592
      0.428979	      0.091173	     -0.100409	     93.092181	    165.623166	      0.023314	      0.170667	      0.223892	      0.103940	      0.219825	      0.099009	      0.713353	      0.093059	      0.055189	      0.095061	      0.026226	      0.067487
      0.430072	      0.091061	     -0.105122	     93.272719	    164.812281	      0.023266	      0.170729	      0.224611	      0.104000	      0.220497	      0.099070	      0.714146	      0.092899	      0.054667	      0.094911	      0.026135	      0.067414
      0.430558	      0.091009	     -0.108102	     93.352735	    164.455878	      0.023245	      0.170756	      0.225412	      0.104027	      0.221281	      0.099096	      0.714603	      0.092827	      0.054449	      0.094844	      0.026095	      0.067382
      0.431166	      0.090942	     -0.112049	     93.452562	    164.010475	      0.023219	      0.170789	      0.226440	      0.104059	      0.222288	      0.099129	      0.715177	      0.092739	      0.054181	      0.094761	      0.026045	      0.067342
      0.433732	      0.090640	     -0.120548	     93.870958	    162.092407	      0.023110	      0.170929	      0.230031	      0.104195	      0.225803	      0.099265	      0.717365	      0.092366	      0.053078	      0.094411	      0.025840	      0.067173
      0.436297	      0.090334	     -0.117930	     94.284348	    160.113398	      0.023005	      0.171071	      0.232667	      0.104330	      0.228376	      0.099400	      0.719221	      0.091997	      0.052018	      0.094065	      0.025641	      0.067006
      0.437421	      0.090204	     -0.114378	     94.463681	    159.246049	      0.022960	      0.171127	      0.233590	      0.104389	      0.229276	      0.099459	      0.719942	      0.091837	      0.051567	      0.093915	      0.025557	      0.066934
      0.438889	      0.090037	     -0.113942	     94.696770	    158.114308	      0.022903	      0.171205	      0.234624	      0.104467	      0.230283	      0.099537	      0.720811	      0.091630	      0.050990	      0.093719	      0.025448	      0.066839
      0.439940	      0.089916	     -0.116464	     94.862435	    157.314287	      0.022862	      0.171260	      0.235261	      0.104522	      0.230903	      0.099592	      0.721384	      0.091482	      0.050584	      0.093580	      0.025371	      0.066772
      0.440407	      0.089861	     -0.118538	     94.935784	    156.962039	      0.022845	      0.171284	      0.235854	      0.104546	      0.231482	      0.099617	      0.721754	      0.091416	      0.050391	      0.093518	      0.025338	      0.066742
      0.440873	      0.089805	     -0.120949	     95.008968	    156.610796	      0.022827	      0.171309	      0.236646	      0.104571	      0.232257	      0.099641	      0.722202	      0.091351	      0.050187	      0.093457	      0.025304	      0.066713
      0.443207	      0.089511	     -0.129404	     95.372417	    154.835159	      0.022740	      0.171430	      0.240007	      0.104689	      0.235541	      0.099759	      0.724255	      0.091027	      0.049192	      0.093152	      0.025141	      0.066565
      0.445541	      0.089209	     -0.128609	     95.731667	    153.015094	      0.022656	      0.171550	      0.242555	      0.104806	      0.238027	      0.099877	      0.726024	      0.090705	      0.048232	      0.092850	      0.024982	      0.066419
      0.448385	      0.088848	     -0.127467	     96.163570	    150.784632	      0.022557	      0.171697	      0.244850	      0.104949	      0.240260	      0.100020	      0.727853	      0.090319	      0.047108	      0.092487	      0.024795	      0.066243
      0.449656	      0.088685	     -0.129828	     96.354590	    149.804299	      0.022514	      0.171758	      0.245654	      0.105013	      0.241041	      0.100084	      0.728570	      0.090148	      0.046621	      0.092326	      0.024714	      0.066165
      0.450217	      0.088611	     -0.132664	     96.438544	    149.375416	      0.022495	      0.171786	      0.246063	      0.105041	      0.241455	      0.100112	      0.728876	      0.090073	      0.046414	      0.092255	      0.024679	      0.066130
      0.450778	      0.088536	     -0.136185	     96.522258	    148.949319	      0.022477	      0.171814	      0.246988	      0.105068	      0.242471	      0.100139	      0.729218	      0.089998	      0.046234	      0.092185	      0.024643	      0.066096
      0.451339	      0.088458	     -0.139823	     96.605733	    148.523431	      0.022458	      0.171842	      0.247875	      0.105096	      0.243447	      0.100167	      0.729550	      0.089923	      0.046057	      0.092115	      0.024609	      0.066062
      0.454145	      0.088048	     -0.149915	     97.019486	    146.354025	      0.022368	      0.171980	      0.251533	      0.105231	      0.247464	      0.100301	      0.731043	      0.089553	      0.045195	      0.091765	      0.024438	      0.065893
      0.456467	      0.087700	     -0.147599	     97.357141	    144.510881	      0.022296	      0.172091	      0.253778	      0.105341	      0.249923	      0.100412	      0.732094	      0.089250	      0.044509	      0.091479	      0.024302	      0.065755
      0.457911	      0.087488	     -0.146725	     97.564907	    143.354908	      0.022252	      0.172163	      0.254900	      0.105410	      0.251150	      0.100480	      0.732674	      0.089064	      0.044094	      0.091303	      0.024220	      0.065669
      0.459354	      0.087277	     -0.146612	     97.771007	    142.206976	      0.022209	      0.172230	      0.255851	      0.105479	      0.252188	      0.100548	      0.733203	      0.088880	      0.043687	      0.091128	      0.024139	      0.065585
      0.460146	      0.087160	     -0.148545	     97.883373	    141.581798	      0.022186	      0.172268	      0.256387	      0.105516	      0.252759	      0.100586	      0.733495	      0.088779	      0.043466	      0.091032	      0.024095	      0.065538
      0.460732	      0.087072	     -0.150706	     97.966178	    141.122090	      0.022169	      0.172295	      0.257311	      0.105544	      0.253656	      0.100613	      0.733853	      0.088705	      0.043291	      0.090962	      0.024063	      0.065504
      0.461318	      0.086983	     -0.153075	     98.048715	    140.662774	      0.022152	      0.172323	      0.258228	      0.105571	      0.254544	      0.100641	      0.734213	      0.088631	      0.043116	      0.090892	      0.024031	      0.065470
      0.464247	      0.086522	     -0.159729	     98.457332	    138.336795	      0.022070	      0.172459	      0.261994	      0.105704	      0.258185	      0.100774	      0.735827	      0.088265	      0.042261	      0.090545	      0.023876	      0.065302
      0.466725	      0.086126	     -0.158976	     98.797705	    136.338650	      0.022002	      0.172571	      0.264332	      0.105816	      0.260442	      0.100886	      0.736979	      0.087960	      0.041567	      0.090255	      0.023750	      0.065162
      0.468190	      0.085892	     -0.161129	     98.996532	    135.157983	      0.021964	      0.172640	      0.265436	      0.105882	      0.261506	      0.100952	      0.737581	      0.087781	      0.041168	      0.090086	      0.023677	      0.065080
